<?xml version="1.0" encoding="UTF-8"?>
<!DOCTYPE svg PUBLIC "-//W3C//DTD SVG 1.1//EN" "http://www.w3.org/Graphics/SVG/1.1/DTD/svg11.dtd">
<!-- Creator: CorelDRAW X8 -->
<svg xmlns="http://www.w3.org/2000/svg" xml:space="preserve" width="102.58mm" height="24.0969mm" version="1.1" style="shape-rendering:geometricPrecision; text-rendering:geometricPrecision; image-rendering:optimizeQuality; fill-rule:evenodd; clip-rule:evenodd"
viewBox="0 0 36294 8526"
 xmlns:xlink="http://www.w3.org/1999/xlink">
 <defs>
  <style type="text/css">
   <![CDATA[
    .fil1 {fill:#FEFEFE;fill-rule:nonzero}
    .fil0 {fill:#F58634;fill-rule:nonzero}
   ]]>
  </style>
 </defs>
 <g id="Camada_x0020_1">
  <metadata id="CorelCorpID_0Corel-Layer"/>
  <path class="fil0" d="M26825 0c-2354,0 -4263,1908 -4263,4263 0,2354 1909,4263 4263,4263 2355,0 4263,-1909 4263,-4263 0,-2355 -1908,-4263 -4263,-4263zm0 7860c-1986,0 -3596,-1611 -3596,-3597 0,-1987 1610,-3597 3596,-3597 1987,0 3597,1610 3597,3597 0,1986 -1610,3597 -3597,3597z"/>
  <path class="fil1" d="M28823 2265c-1103,-1104 -2892,-1104 -3996,0 -1103,1103 -1103,2893 0,3996l1998 1998 1998 -1998c1104,-1103 1104,-2893 0,-3996zm-3496 3497c-827,-827 -827,-2171 0,-2998 826,-826 2170,-826 2997,0 826,827 826,2171 0,2998 -826,826 -2171,826 -2997,0z"/>
  <path class="fil0" d="M25695 3886c-208,0 -377,169 -377,377 0,208 169,377 377,377 208,0 377,-169 377,-377 0,-208 -169,-377 -377,-377z"/>
  <path class="fil0" d="M26825 3886c-208,0 -376,169 -376,377 0,208 168,377 376,377 208,0 377,-169 377,-377 0,-208 -169,-377 -377,-377z"/>
  <path class="fil0" d="M27956 3886c-209,0 -377,169 -377,377 0,208 168,377 377,377 208,0 376,-169 376,-377 0,-208 -168,-377 -376,-377z"/>
  <polygon class="fil1" points="6957,7300 6386,7300 6386,3019 3518,7244 3288,6920 571,3075 571,7300 0,7300 0,1376 527,2071 3505,6284 6957,1260 "/>
  <polygon class="fil1" points="8207,4636 8207,6763 11495,6763 11495,7300 7637,7300 7637,1660 7908,1660 10354,1660 10354,2197 8207,2197 8207,4100 10923,4100 10923,4636 "/>
  <path class="fil1" d="M11153 1663l570 -3 0 3050c0,706 195,1255 585,1644 353,354 788,531 1303,531 524,0 957,-171 1299,-514 403,-403 604,-957 604,-1662l0 -3049 571 0 0 3044c0,832 -258,1507 -774,2024 -304,303 -662,508 -1075,616 -199,52 -408,78 -624,78 -668,0 -1235,-231 -1700,-694 -506,-506 -759,-1180 -759,-2023l0 -3042z"/>
  <path class="fil1" d="M19747 4188l2181 0 0 2391 -83 81c-198,191 -403,349 -613,471 -459,266 -954,400 -1485,400 -414,0 -813,-86 -1196,-260 -381,-172 -710,-415 -982,-727 -310,-351 -524,-756 -643,-1215 -66,-259 -100,-521 -100,-788 0,-530 131,-1028 395,-1496 263,-467 620,-833 1070,-1097 451,-264 936,-396 1456,-396 797,0 1480,285 2051,856l-381 380c-460,-466 -1019,-700 -1671,-700 -645,0 -1197,231 -1657,692 -460,461 -690,1048 -693,1761 0,710 231,1297 693,1759 462,463 1015,694 1658,694 623,0 1162,-214 1617,-642l0 -1627 -1617 0 0 -537z"/>
  <polygon class="fil1" points="36294,1250 33465,7690 30900,1235 31521,1032 33495,6215 35746,1018 "/>
 </g>
</svg>
