<?xml version="1.0" encoding="UTF-8"?>
<!DOCTYPE svg PUBLIC "-//W3C//DTD SVG 1.1//EN" "http://www.w3.org/Graphics/SVG/1.1/DTD/svg11.dtd">
<!-- Creator: CorelDRAW X8 -->
<svg xmlns="http://www.w3.org/2000/svg" xml:space="preserve" width="24.0969mm" height="24.0969mm" version="1.1" style="shape-rendering:geometricPrecision; text-rendering:geometricPrecision; image-rendering:optimizeQuality; fill-rule:evenodd; clip-rule:evenodd"
viewBox="0 0 589 589"
 xmlns:xlink="http://www.w3.org/1999/xlink">
 <defs>
  <style type="text/css">
   <![CDATA[
    .fil1 {fill:#FEFEFE;fill-rule:nonzero}
    .fil0 {fill:#F58634;fill-rule:nonzero}
   ]]>
  </style>
 </defs>
 <g id="Camada_x0020_1">
  <metadata id="CorelCorpID_0Corel-Layer"/>
  <path class="fil0" d="M295 0c-163,0 -295,132 -295,295 0,162 132,294 295,294 162,0 294,-132 294,-294 0,-163 -132,-295 -294,-295zm0 543c-138,0 -249,-111 -249,-248 0,-138 111,-249 249,-249 137,0 248,111 248,249 0,137 -111,248 -248,248z"/>
  <path class="fil1" d="M433 157c-77,-77 -200,-77 -276,0 -77,76 -77,199 0,276l138 138 138 -138c76,-77 76,-200 0,-276zm-242 241c-57,-57 -57,-150 0,-207 57,-57 150,-57 207,0 57,57 57,150 0,207 -57,57 -150,57 -207,0z"/>
  <path class="fil0" d="M216 269c-14,0 -26,11 -26,26 0,14 12,26 26,26 15,0 27,-12 27,-26 0,-15 -12,-26 -27,-26z"/>
  <path class="fil0" d="M295 269c-15,0 -26,11 -26,26 0,14 11,26 26,26 14,0 26,-12 26,-26 0,-15 -12,-26 -26,-26z"/>
  <path class="fil0" d="M373 269c-15,0 -26,11 -26,26 0,14 11,26 26,26 14,0 26,-12 26,-26 0,-15 -12,-26 -26,-26z"/>
 </g>
</svg>
